<svg xmlns="http://www.w3.org/2000/svg" xmlns:xlink="http://www.w3.org/1999/xlink" aria-hidden="true" role="img" class="iconify iconify--icon-park-outline" width="32" height="32" preserveAspectRatio="xMidYMid meet" viewBox="0 0 48 48"><g fill="none" stroke="currentColor" stroke-width="4" stroke-linecap="round" stroke-linejoin="round"><path d="M11 34.688L24 42l8-4.5l5-2.813"></path><path d="M40 30V15L27.5 7.969"></path><path d="M20.5 7.969L8 15v15"></path><path d="M21 18.75l-3 1.75v7l3 1.75L24 31l3-1.75l3-1.75v-7l-3-1.75L24 17l-3 1.75z"></path><path d="M24 17v-7"></path><path d="M30 27l7 4"></path><path d="M18 27l-7 4"></path><circle cx="24" cy="7" r="3"></circle><circle cx="8" cy="33" r="3"></circle><circle cx="40" cy="33" r="3"></circle></g></svg>