<svg xmlns="http://www.w3.org/2000/svg" xmlns:xlink="http://www.w3.org/1999/xlink" aria-hidden="true" role="img" class="iconify iconify--ph" width="32" height="32" preserveAspectRatio="xMidYMid meet" viewBox="0 0 256 256"><path d="M166.542 192.785A8 8 0 0 1 160 205.391l-144.004.006a8 8 0 0 1-6.542-12.606a96.214 96.214 0 0 1 45.347-34.843a60 60 0 1 1 66.397 0a96.215 96.215 0 0 1 45.343 34.837zm81.522 0a96.214 96.214 0 0 0-45.344-34.837a60 60 0 0 0-49.473-107.713a8 8 0 0 0-4.25 12.479a75.832 75.832 0 0 1 3.84 84.886a8 8 0 0 0 2.045 10.601a113.206 113.206 0 0 1 8.743 7.215c.145.157.29.313.45.46a112.034 112.034 0 0 1 25.478 34.905a8 8 0 0 0 7.25 4.615l44.72-.005a8 8 0 0 0 6.54-12.606z" fill="currentColor"></path></svg>